<?xml version="1.0" encoding="utf-8"?>
<!-- Generator: Adobe Illustrator 19.2.1, SVG Export Plug-In . SVG Version: 6.00 Build 0)  -->
<svg version="1.1" xmlns="http://www.w3.org/2000/svg" xmlns:xlink="http://www.w3.org/1999/xlink" x="0px" y="0px"
	 viewBox="0 0 1901.3 1070.7" style="enable-background:new 0 0 1901.3 1070.7;" xml:space="preserve">
<style type="text/css">
	.st0{fill:#060910;}
	.st1{fill:#050810;}
	.st2{enable-background:new    ;}
	.st3{fill-rule:evenodd;clip-rule:evenodd;fill:#050810;}
</style>
<g id="Battle__x09__x09_____Royale">
	<g>
		<path class="st0" d="M820.5,254.5c-5.7,6.1-12.8,10.2-27.1,16.1l-56.1,23.3l-3.1-7.5l2.1-0.9c7.2-3,9.9-4.7,10.5-6.8
			c0.5-1.5,0.3-2.1-3.3-10.8l-24.9-60.1c-3.7-8.9-3.8-9.3-5.3-10.1c-1.8-0.9-5-0.2-12.2,2.8l-2.1,0.9l-3.1-7.5l53.5-22.2
			c16.5-6.8,23.5-8.3,32.9-7.2c8.4,1.1,15.5,6.5,18.8,14.4c5.2,12.6-0.4,23.4-17.8,34.2c21.8-5.8,37-0.9,42.8,13.3
			C829.9,235.6,827.7,246.9,820.5,254.5z M750.2,180l-4.2,1.7c-4.4,1.8-7.5,3.8-4.4,11.3l12.2,29.4l6.8-2.8
			c17.9-7.4,20.6-17.6,15.6-29.7C771.4,178.4,762.4,175,750.2,180z M766.5,226l-9.6,4l12.9,31.2c3.5,8.5,4.5,8.5,12.1,5.4l4.2-1.7
			c14.3-5.9,18.1-16.3,12.8-29C793.6,222.9,784.6,218.5,766.5,226z"/>
		<path class="st0" d="M911.1,224.2c-7.1,2.9-13.8,1.5-18.8-3.7c-4.4,10.2-10.5,15.9-22.4,20.8c-13.4,5.6-23.8,2.9-28.1-7.4
			c-5.5-13.3,1.8-22.2,29.8-41.6c1.2-0.7,2.8-1.8,4.2-2.9l-3-7.2c-4-9.6-8.5-11.9-16.8-8.5c-5.5,2.3-9.4,6.3-8.4,8.7
			c0.2,0.6,5.2,3.5,6.3,6.3c2.1,5.1-1.3,11.1-7.6,13.7c-6.4,2.6-13.1,0.2-15.5-5.7c-4.5-10.8,5.1-23,24.2-31
			c20.1-8.3,33.6-7.1,40.9,10.6l10.1,24.4c3.3,8,4.8,9.7,7.9,8.4c1.4-0.6,3.1-3.5,4.6-4.2c1.2-0.5,2.4,0,3,1.4
			C924,212.4,919,221,911.1,224.2z M879,197l-6.7,4.7c-9.1,6.4-11.5,12.6-8.5,19.8c2.5,6,7.5,8.3,12.9,6c7.8-3.2,9.9-12.1,5.5-22.7
			L879,197z"/>
		<path class="st0" d="M960.9,203.6c-7.9,3.3-15,3-19.9-0.7c-4-2.9-5.9-6-10.6-17.4l-13.7-33.1l-9.8,4.1l-3-7.2
			c12.5-7,16.2-19.4,11-38l8.7-3.6l11.4,27.4l18-7.5l3.4,8.3l-18,7.5l14.8,35.6c3.9,9.4,6,11.5,10.1,9.8c5.8-2.4,6.3-9.4,2.1-19.7
			l7.3-3c0.7,1.3,1.2,2.4,1.5,3.1C979.6,182.4,976.7,197,960.9,203.6z"/>
		<path class="st0" d="M1020,179.1c-7.9,3.3-15,3-19.9-0.7c-4-2.9-5.9-6-10.6-17.4l-13.7-33.1l-9.8,4.1l-3-7.2
			c12.5-7,16.2-19.4,11-38l8.7-3.6l11.4,27.4l18-7.5l3.4,8.3l-18,7.5l14.8,35.6c3.9,9.4,6,11.5,10.1,9.8c5.8-2.4,6.3-9.4,2.1-19.7
			l7.3-3c0.7,1.3,1.2,2.4,1.5,3.1C1038.6,157.9,1035.8,172.5,1020,179.1z"/>
		<path class="st0" d="M1048.1,165l-2.9-7.1l1.9-0.8c9-3.7,8.8-4.6,6.5-10.2L1026,80.3c-5.1-12.3-5.8-12.7-14.2-9.2l-2.6,1.1
			l-2.9-7.1l32.4-15.9l36.8,88.7c1.4,3.5,2.3,4.4,4.3,4.5c1.2,0.2,4.1-0.6,6.8-1.7l1.9-0.8l2.9,7.1L1048.1,165z"/>
		<path class="st0" d="M1136.9,130.6c-23,9.5-43.3,1.2-51.6-18.7c-8.3-20,1.1-42,22.6-50.9c20.2-8.4,38.6-0.6,47.1,20.1l0.9,2.2
			l-46.4,19.2c7.4,17.7,18.2,20.9,28.9,16.4c9-3.7,13.3-10.9,14.4-24l7.9,0C1160.8,112.3,1153.1,123.9,1136.9,130.6z M1111.3,68
			c-8.3,3.4-10.2,13.7-4.8,26.8l20.8-8.6c2.8-1.1,3.3-2.7,1.9-6C1124.7,69.3,1118.4,65.1,1111.3,68z"/>
		<path class="st0" d="M775.1,475.5c-11.9,4.9-22.3,2.6-29-7.3c-1.3-1.9-4.6-7.5-9.1-16.5c-7.1-14-12.3-14.1-22.4-9.9l-7.8,3.2
			l11.6,28c3.7,8.9,3.8,9.3,5.3,10.1c1.8,0.9,5.1,0.2,12.3-2.8l3.6-1.5l3.1,7.5l-55.4,23l-3.1-7.5l2.1-0.9c7.2-3,9.9-4.7,10.6-6.6
			c0.5-1.6,0.3-2.1-3.4-10.9l-24.9-60c-3.7-8.9-3.8-9.3-5.3-10.1c-1.8-0.9-5-0.2-12.2,2.8l-2.1,0.9l-3.1-7.5l59.2-24.5
			c12.7-5.3,22.7-7.5,29.4-6.3c9.2,1.7,16.1,7.1,19.6,15.4c5.7,13.9,0.3,24.9-17.4,36.4c13.9-1,21.3,3.2,28.8,14.7l3.2,4.9
			c6.7,11.4,7.8,11.4,11.4,9.9c4.2-1.7,4.4-7,0.9-15.8l7.5-3.1C794.4,455.6,790,469.3,775.1,475.5z M701.5,395.1l-3.3,1.4
			c-8.9,3.7-9.4,5-6.2,12.9l11.6,28l7.6-3.2c18.4-7.6,22.4-14.5,16.6-28.6C722.5,393,714.3,389.7,701.5,395.1z"/>
		<path class="st0" d="M842.5,447.5c-21.9,9.1-43.9,1-52.2-19.1c-8.3-20,1.9-41.7,23.9-50.8c21.1-8.7,44,0,52.1,19.6
			C874.6,417,864.4,438.4,842.5,447.5z M816.9,384.9c-9.3,3.8-10.2,15.3-2.6,33.6s16.1,25.6,25.4,21.8c8.9-3.7,9.9-15.6,2.6-33.2
			C835.8,391.3,827.6,380.5,816.9,384.9z"/>
		<path class="st0" d="M930.8,353.3l-2.6,62.3c-0.8,19.5-6.1,30-17.7,34.8c-10.4,4.3-19.3,2-22.5-5.6c-2.8-6.8,0.3-14.2,7.1-17.1
			c6.1-2.5,12-0.4,14.3,5.1c0.9,2.2,0.2,4.1,0.9,5.6c0.2,0.4,0.9,0.6,1.6,0.3c4.1-1.5,6.4-7.2,7.2-15.8l0.7-7.3l-51.3-43.4
			c-4.2-3.5-5.4-4.1-10.7-2l-2.9-7.1l39.4-16.3l2.9,7.1l-2.5,1c-3.3,1.4-4.4,3-3.6,4.9c0.4,1,1.4,2.2,2.7,3.3l27.1,23.8l1-30.1
			c0-2-0.5-4.7-1.1-6.2c-1.5-3.6-5.1-4.4-11-1.9l-2.1,0.9l-2.9-7.1l31.2-12.9l2.9,7.1C933.1,339.3,931.2,343.2,930.8,353.3z"/>
		<path class="st0" d="M1031,369.4c-7.1,2.9-13.8,1.5-18.8-3.7c-4.4,10.2-10.5,15.9-22.4,20.8c-13.4,5.6-23.8,2.9-28.1-7.4
			c-5.5-13.3,1.8-22.2,29.8-41.6c1.2-0.7,2.8-1.8,4.2-2.9l-3-7.2c-4-9.6-8.5-11.9-16.8-8.5c-5.5,2.3-9.4,6.3-8.4,8.7
			c0.2,0.6,5.2,3.5,6.3,6.3c2.1,5.1-1.3,11.1-7.6,13.7c-6.4,2.6-13.1,0.2-15.5-5.7c-4.5-10.8,5.1-23,24.2-31
			c20.1-8.3,33.6-7.1,40.9,10.6L1026,346c3.3,8,4.8,9.7,7.9,8.4c1.4-0.6,3.1-3.5,4.6-4.2c1.2-0.5,2.4,0,3,1.4
			C1043.9,357.5,1038.9,366.1,1031,369.4z M998.9,342.1l-6.7,4.7c-9.1,6.4-11.5,12.6-8.5,19.8c2.5,6,7.5,8.3,12.9,6
			c7.8-3.2,9.9-12.1,5.5-22.7L998.9,342.1z"/>
		<path class="st0" d="M1049.9,359.1l-2.9-7.1l1.9-0.8c9-3.7,8.8-4.6,6.5-10.2l-27.6-66.6c-5.1-12.3-5.8-12.7-14.2-9.2l-2.6,1.1
			l-2.9-7.1l32.4-15.9l36.8,88.7c1.4,3.5,2.3,4.4,4.3,4.5c1.2,0.2,4.1-0.6,6.8-1.7l1.9-0.8l2.9,7.1L1049.9,359.1z"/>
		<path class="st0" d="M1138.8,324.7c-23,9.5-43.3,1.2-51.6-18.7c-8.3-20,1.1-42,22.6-50.9c20.2-8.4,38.6-0.6,47.1,20.1l0.9,2.2
			l-46.4,19.2c7.4,17.7,18.2,20.9,28.9,16.4c9-3.7,13.3-10.9,14.4-24l7.9,0C1162.7,306.3,1155,318,1138.8,324.7z M1113.2,262.1
			c-8.3,3.4-10.2,13.7-4.8,26.8l20.8-8.6c2.8-1.1,3.3-2.7,1.9-6C1126.5,263.4,1120.2,259.2,1113.2,262.1z"/>
	</g>
</g>
<g id="X">
	<g>
		<path class="st1" d="M984.9,699.2l-5.9-14.4c13.2-5.8,16.8-9.1,14.9-13.7c-1.1-2.7-4.1-5.5-7.2-7.6l-46.2-29.5l-11.1,39.5
			c-1.7,5.7-1.6,11.3,0.2,15.5c3.9,9.3,14,9.8,34.5,1.9l5.9,14.4l-88.1,36.4l-5.9-14.4c15.2-6.9,20.8-14.5,28.4-39.8l19.2-64.4
			l-86.7-55.1c-11.9-7.6-16.5-8.2-28.5-4.1l-5.9-14.4l95.3-39.4l5.9,14.4c-15.5,7-17.5,8.8-15.5,13.9c0.9,2.1,2.6,3.9,5.5,5.8
			l44.6,28.6l9.2-30.6c3-10,3.9-16.3,2-20.8c-3.6-8.8-14.4-9.9-31.2-3l-5.9-14.4l82-33.9l5.9,14.4c-13,6.9-20.9,15.8-26.7,35
			l-19.3,63.4l75.5,49.2c26.4,17.1,30.6,18.2,44.9,12.9l5.9,14.4L984.9,699.2z"/>
	</g>
</g>
<g id="Rectangle_2_1_" class="st2">
	<g id="Rectangle_2">
		<g>
			<polygon class="st3" points="985.8,473.8 991.9,488.5 2124.3,17.3 2124.6,0 			"/>
		</g>
	</g>
</g>
<g id="Rectangle_2_copy_1_" class="st2">
	<g id="Rectangle_2_copy_4_">
		<g>
			<polygon class="st3" points="887.5,722.4 -223.3,1182.6 -223.3,1199.8 893.5,737 			"/>
		</g>
	</g>
</g>
</svg>
