<?xml version="1.0" encoding="utf-8"?>
<!-- Generator: Adobe Illustrator 19.2.1, SVG Export Plug-In . SVG Version: 6.00 Build 0)  -->
<svg version="1.1" xmlns="http://www.w3.org/2000/svg" xmlns:xlink="http://www.w3.org/1999/xlink" x="0px" y="0px"
	 viewBox="0 0 1121.3 898.8" style="enable-background:new 0 0 1121.3 898.8;" xml:space="preserve">
<style type="text/css">
	.st0{fill:#060910;}
	.st1{fill:#050810;}
	.st2{enable-background:new    ;}
	.st3{fill-rule:evenodd;clip-rule:evenodd;fill:#050810;}
</style>
<g id="Battle__x09__x09_____Royale">
	<g>
		<path class="st0" d="M441.4,205.2c-5.7,6.1-12.8,10.2-27.1,16.1l-56.1,23.3l-3.1-7.5l2.1-0.9c7.2-3,9.9-4.7,10.5-6.8
			c0.5-1.5,0.3-2.1-3.3-10.8l-24.9-60.1c-3.7-8.9-3.8-9.3-5.3-10.1c-1.8-0.9-5-0.2-12.2,2.8l-2.1,0.9l-3.1-7.5l53.5-22.2
			c16.5-6.8,23.5-8.3,32.9-7.2c8.4,1.1,15.5,6.5,18.8,14.4c5.2,12.6-0.4,23.4-17.8,34.2c21.8-5.8,37-0.9,42.8,13.3
			C450.8,186.4,448.7,197.7,441.4,205.2z M371.1,130.8l-4.2,1.7c-4.4,1.8-7.5,3.8-4.4,11.3l12.2,29.4l6.8-2.8
			c17.9-7.4,20.6-17.6,15.6-29.7C392.4,129.1,383.3,125.8,371.1,130.8z M387.4,176.8l-9.6,4l12.9,31.2c3.5,8.5,4.5,8.5,12.1,5.4
			l4.2-1.7c14.3-5.9,18.1-16.3,12.8-29C414.6,173.7,405.6,169.3,387.4,176.8z"/>
		<path class="st0" d="M532,175c-7.1,2.9-13.8,1.5-18.8-3.7c-4.4,10.2-10.5,15.9-22.4,20.8c-13.4,5.6-23.8,2.9-28.1-7.4
			c-5.5-13.3,1.8-22.2,29.8-41.6c1.2-0.7,2.8-1.8,4.2-2.9l-3-7.2c-4-9.6-8.5-11.9-16.8-8.5c-5.5,2.3-9.4,6.3-8.4,8.7
			c0.2,0.6,5.2,3.5,6.3,6.3c2.1,5.1-1.3,11.1-7.6,13.7c-6.4,2.6-13.1,0.2-15.5-5.7c-4.5-10.8,5.1-23,24.2-31
			c20.1-8.3,33.6-7.1,40.9,10.6l10.1,24.4c3.3,8,4.8,9.7,7.9,8.4c1.4-0.6,3.1-3.5,4.6-4.2c1.2-0.5,2.4,0,3,1.4
			C545,163.1,539.9,171.7,532,175z M499.9,147.7l-6.7,4.7c-9.1,6.4-11.5,12.6-8.5,19.8c2.5,6,7.5,8.3,12.9,6
			c7.8-3.2,9.9-12.1,5.5-22.7L499.9,147.7z"/>
		<path class="st0" d="M581.9,154.3c-7.9,3.3-15,3-19.9-0.7c-4-2.9-5.9-6-10.6-17.4l-13.7-33.1l-9.8,4.1l-3-7.2
			c12.5-7,16.2-19.4,11-38l8.7-3.6l11.4,27.4l18-7.5l3.4,8.3l-18,7.5l14.8,35.6c3.9,9.4,6,11.5,10.1,9.8c5.8-2.4,6.3-9.4,2.1-19.7
			l7.3-3c0.7,1.3,1.2,2.4,1.5,3.1C600.6,133.1,597.7,147.8,581.9,154.3z"/>
		<path class="st0" d="M640.9,129.9c-7.9,3.3-15,3-19.9-0.7c-4-2.9-5.9-6-10.6-17.4l-13.7-33.1l-9.8,4.1l-3-7.2
			c12.5-7,16.2-19.4,11-38l8.7-3.6L615,61.4l18-7.5l3.4,8.3l-18,7.5l14.8,35.6c3.9,9.4,6,11.5,10.1,9.8c5.8-2.4,6.3-9.4,2.1-19.7
			l7.3-3c0.7,1.3,1.2,2.4,1.5,3.1C659.6,108.7,656.7,123.3,640.9,129.9z"/>
		<path class="st0" d="M669,115.8l-2.9-7.1l1.9-0.8c9-3.7,8.8-4.6,6.5-10.2l-27.6-66.6c-5.1-12.3-5.8-12.7-14.2-9.2l-2.6,1.1
			l-2.9-7.1L659.5,0l36.8,88.7c1.4,3.5,2.3,4.4,4.3,4.5c1.2,0.2,4.1-0.6,6.8-1.7l1.9-0.8l2.9,7.1L669,115.8z"/>
		<path class="st0" d="M757.9,81.4c-23,9.5-43.3,1.2-51.6-18.7c-8.3-20,1.1-42,22.6-50.9c20.2-8.4,38.6-0.6,47.1,20.1l0.9,2.2
			l-46.4,19.2c7.4,17.7,18.2,20.9,28.9,16.4c9-3.7,13.3-10.9,14.4-24l7.9,0C781.8,63,774.1,74.7,757.9,81.4z M732.2,18.8
			c-8.3,3.4-10.2,13.7-4.8,26.8l20.8-8.6c2.8-1.1,3.3-2.7,1.9-6C745.6,20.1,739.3,15.9,732.2,18.8z"/>
		<path class="st0" d="M396,426.2c-11.9,4.9-22.3,2.6-29-7.3c-1.3-1.9-4.6-7.5-9.1-16.5c-7.1-14-12.3-14.1-22.4-9.9l-7.8,3.2
			l11.6,28c3.7,8.9,3.8,9.3,5.3,10.1c1.8,0.9,5.1,0.2,12.3-2.8l3.6-1.5l3.1,7.5l-55.4,23l-3.1-7.5l2.1-0.9c7.2-3,9.9-4.7,10.6-6.6
			c0.5-1.6,0.3-2.1-3.4-10.9l-24.9-60c-3.7-8.9-3.8-9.3-5.3-10.1c-1.8-0.9-5-0.2-12.2,2.8l-2.1,0.9l-3.1-7.5l59.2-24.5
			c12.7-5.3,22.7-7.5,29.4-6.3c9.2,1.7,16.1,7.1,19.6,15.4c5.7,13.9,0.3,24.9-17.4,36.4c13.9-1,21.3,3.2,28.8,14.7l3.2,4.9
			c6.7,11.4,7.8,11.4,11.4,9.9c4.2-1.7,4.4-7,0.9-15.8l7.5-3.1C415.4,406.4,411,420,396,426.2z M322.4,345.8l-3.3,1.4
			c-8.9,3.7-9.4,5-6.2,12.9l11.6,28l7.6-3.2c18.4-7.6,22.4-14.5,16.6-28.6C343.5,343.8,335.3,340.5,322.4,345.8z"/>
		<path class="st0" d="M463.5,398.3c-21.9,9.1-43.9,1-52.2-19.1c-8.3-20,1.9-41.7,23.9-50.8c21.1-8.7,44,0,52.1,19.6
			C495.5,367.8,485.4,389.2,463.5,398.3z M437.9,335.7c-9.3,3.8-10.2,15.3-2.6,33.6s16.1,25.6,25.4,21.8c8.9-3.7,9.9-15.6,2.6-33.2
			C456.8,342.1,448.5,331.2,437.9,335.7z"/>
		<path class="st0" d="M551.7,304l-2.6,62.3c-0.8,19.5-6.1,30-17.7,34.8c-10.4,4.3-19.3,2-22.5-5.6c-2.8-6.8,0.3-14.2,7.1-17.1
			c6.1-2.5,12-0.4,14.3,5.1c0.9,2.2,0.2,4.1,0.9,5.6c0.2,0.4,0.9,0.6,1.6,0.3c4.1-1.5,6.4-7.2,7.2-15.8l0.7-7.3L489.5,323
			c-4.2-3.5-5.4-4.1-10.7-2l-2.9-7.1l39.4-16.3l2.9,7.1l-2.5,1c-3.3,1.4-4.4,3-3.6,4.9c0.4,1,1.4,2.2,2.7,3.3l27.1,23.8l1-30.1
			c0-2-0.5-4.7-1.1-6.2c-1.5-3.6-5.1-4.4-11-1.9l-2.1,0.9l-2.9-7.1l31.2-12.9l2.9,7.1C554.1,290.1,552.1,294,551.7,304z"/>
		<path class="st0" d="M651.9,320.2c-7.1,2.9-13.8,1.5-18.8-3.7c-4.4,10.2-10.5,15.9-22.4,20.8c-13.4,5.6-23.8,2.9-28.1-7.4
			c-5.5-13.3,1.8-22.2,29.8-41.6c1.2-0.7,2.8-1.8,4.2-2.9l-3-7.2c-4-9.6-8.5-11.9-16.8-8.5c-5.5,2.3-9.4,6.3-8.4,8.7
			c0.2,0.6,5.2,3.5,6.3,6.3c2.1,5.1-1.3,11.1-7.6,13.7c-6.4,2.6-13.1,0.2-15.5-5.7c-4.5-10.8,5.1-23,24.2-31
			c20.1-8.3,33.6-7.1,40.9,10.6l10.1,24.4c3.3,8,4.8,9.7,7.9,8.4c1.4-0.6,3.1-3.5,4.6-4.2c1.2-0.5,2.4,0,3,1.4
			C664.9,308.3,659.8,316.9,651.9,320.2z M619.8,292.9l-6.7,4.7c-9.1,6.4-11.5,12.6-8.5,19.8c2.5,6,7.5,8.3,12.9,6
			c7.8-3.2,9.9-12.1,5.5-22.7L619.8,292.9z"/>
		<path class="st0" d="M670.9,309.9l-2.9-7.1l1.9-0.8c9-3.7,8.8-4.6,6.5-10.2l-27.6-66.6c-5.1-12.3-5.8-12.7-14.2-9.2l-2.6,1.1
			L629,210l32.4-15.9l36.8,88.7c1.4,3.5,2.3,4.4,4.3,4.5c1.2,0.2,4.1-0.6,6.8-1.7l1.9-0.8l2.9,7.1L670.9,309.9z"/>
		<path class="st0" d="M759.7,275.5c-23,9.5-43.3,1.2-51.6-18.7c-8.3-20,1.1-42,22.6-50.9c20.2-8.4,38.6-0.6,47.1,20.1l0.9,2.2
			l-46.4,19.2c7.4,17.7,18.2,20.9,28.9,16.4c9-3.7,13.3-10.9,14.4-24l7.9,0C783.6,257.1,776,268.7,759.7,275.5z M734.1,212.9
			c-8.3,3.4-10.2,13.7-4.8,26.8l20.8-8.6c2.8-1.1,3.3-2.7,1.9-6C747.5,214.1,741.2,209.9,734.1,212.9z"/>
	</g>
</g>
<g id="X">
	<g>
		<path class="st1" d="M605.8,650l-5.9-14.4c13.2-5.8,16.8-9.1,14.9-13.7c-1.1-2.7-4.1-5.5-7.2-7.6l-46.2-29.5l-11.1,39.5
			c-1.7,5.7-1.6,11.3,0.2,15.5c3.9,9.3,14,9.8,34.5,1.9l5.9,14.4l-88.1,36.4l-5.9-14.4c15.2-6.9,20.8-14.5,28.4-39.8l19.2-64.4
			L457.8,519c-11.9-7.6-16.5-8.2-28.5-4.1l-5.9-14.4l95.3-39.4l5.9,14.4c-15.5,7-17.5,8.8-15.5,13.9c0.9,2.1,2.6,3.9,5.5,5.8
			l44.6,28.6l9.2-30.6c3-10,3.9-16.3,2-20.8c-3.6-8.8-14.4-9.9-31.2-3l-5.9-14.4l82-33.9l5.9,14.4c-13,6.9-20.9,15.8-26.7,35
			l-19.3,63.4l75.5,49.2c26.4,17.1,30.6,18.2,44.9,12.9l5.9,14.4L605.8,650z"/>
	</g>
</g>
<g id="Rectangle_2_1_" class="st2">
	<g id="Rectangle_2">
		<g>
			<polygon class="st3" points="606.8,424.6 612.9,439.2 1745.3,-32 1745.6,-49.2 			"/>
		</g>
	</g>
</g>
<g id="Rectangle_2_copy_1_" class="st2">
	<g id="Rectangle_2_copy">
		<g>
			<polygon class="st3" points="508.4,673.2 -602.4,1133.4 -602.4,1150.5 514.5,687.8 			"/>
		</g>
	</g>
</g>
</svg>
